<mxfile host="app.diagrams.net" modified="2024-01-14T17:33:00.318Z" agent="Mozilla/5.0 (Windows NT 10.0; Win64; x64) AppleWebKit/537.36 (KHTML, like Gecko) Chrome/120.0.0.0 Safari/537.36 OPR/106.0.0.0" etag="7zHXeeeM_i5tQE9P9ybD" version="22.1.18" type="device">
  <diagram name="Страница — 1" id="w7XiPYCQ5Oc1OykZrJuj">
    <mxGraphModel dx="941" dy="761" grid="1" gridSize="10" guides="1" tooltips="1" connect="1" arrows="1" fold="1" page="1" pageScale="1" pageWidth="827" pageHeight="1169" math="0" shadow="0">
      <root>
        <mxCell id="0" />
        <mxCell id="1" parent="0" />
        <mxCell id="cLoqVfUioulm1d3ncOUN-3" style="edgeStyle=orthogonalEdgeStyle;rounded=0;orthogonalLoop=1;jettySize=auto;html=1;entryX=0.5;entryY=0;entryDx=0;entryDy=0;" edge="1" parent="1" source="cLoqVfUioulm1d3ncOUN-1" target="cLoqVfUioulm1d3ncOUN-2">
          <mxGeometry relative="1" as="geometry" />
        </mxCell>
        <mxCell id="cLoqVfUioulm1d3ncOUN-1" value="start" style="ellipse;whiteSpace=wrap;html=1;" vertex="1" parent="1">
          <mxGeometry x="340" y="40" width="120" height="80" as="geometry" />
        </mxCell>
        <mxCell id="cLoqVfUioulm1d3ncOUN-5" style="edgeStyle=orthogonalEdgeStyle;rounded=0;orthogonalLoop=1;jettySize=auto;html=1;entryX=0.5;entryY=0;entryDx=0;entryDy=0;" edge="1" parent="1" source="cLoqVfUioulm1d3ncOUN-2">
          <mxGeometry relative="1" as="geometry">
            <mxPoint x="400" y="260" as="targetPoint" />
          </mxGeometry>
        </mxCell>
        <mxCell id="cLoqVfUioulm1d3ncOUN-2" value="array1&lt;br&gt;arrey2" style="shape=parallelogram;perimeter=parallelogramPerimeter;whiteSpace=wrap;html=1;fixedSize=1;" vertex="1" parent="1">
          <mxGeometry x="340" y="160" width="120" height="60" as="geometry" />
        </mxCell>
        <mxCell id="cLoqVfUioulm1d3ncOUN-9" style="edgeStyle=orthogonalEdgeStyle;rounded=0;orthogonalLoop=1;jettySize=auto;html=1;exitX=0.5;exitY=1;exitDx=0;exitDy=0;entryX=0.5;entryY=0;entryDx=0;entryDy=0;" edge="1" parent="1" source="cLoqVfUioulm1d3ncOUN-7" target="cLoqVfUioulm1d3ncOUN-8">
          <mxGeometry relative="1" as="geometry" />
        </mxCell>
        <mxCell id="cLoqVfUioulm1d3ncOUN-7" value="count = 0" style="shape=parallelogram;perimeter=parallelogramPerimeter;whiteSpace=wrap;html=1;fixedSize=1;" vertex="1" parent="1">
          <mxGeometry x="340" y="260" width="120" height="60" as="geometry" />
        </mxCell>
        <mxCell id="cLoqVfUioulm1d3ncOUN-11" style="edgeStyle=orthogonalEdgeStyle;rounded=0;orthogonalLoop=1;jettySize=auto;html=1;exitX=0.5;exitY=1;exitDx=0;exitDy=0;entryX=0.5;entryY=0;entryDx=0;entryDy=0;" edge="1" parent="1" source="cLoqVfUioulm1d3ncOUN-8" target="cLoqVfUioulm1d3ncOUN-10">
          <mxGeometry relative="1" as="geometry" />
        </mxCell>
        <mxCell id="cLoqVfUioulm1d3ncOUN-22" style="edgeStyle=orthogonalEdgeStyle;rounded=0;orthogonalLoop=1;jettySize=auto;html=1;exitX=1;exitY=0.5;exitDx=0;exitDy=0;entryX=0;entryY=0.5;entryDx=0;entryDy=0;" edge="1" parent="1" source="cLoqVfUioulm1d3ncOUN-8" target="cLoqVfUioulm1d3ncOUN-21">
          <mxGeometry relative="1" as="geometry" />
        </mxCell>
        <mxCell id="cLoqVfUioulm1d3ncOUN-8" value="for (i =0; i , array1.lenght;&lt;br&gt;i++)" style="shape=hexagon;perimeter=hexagonPerimeter2;whiteSpace=wrap;html=1;fixedSize=1;" vertex="1" parent="1">
          <mxGeometry x="340" y="360" width="120" height="80" as="geometry" />
        </mxCell>
        <mxCell id="cLoqVfUioulm1d3ncOUN-14" style="edgeStyle=orthogonalEdgeStyle;rounded=0;orthogonalLoop=1;jettySize=auto;html=1;exitX=0;exitY=0.5;exitDx=0;exitDy=0;entryX=0;entryY=0.75;entryDx=0;entryDy=0;" edge="1" parent="1" source="cLoqVfUioulm1d3ncOUN-10" target="cLoqVfUioulm1d3ncOUN-8">
          <mxGeometry relative="1" as="geometry">
            <Array as="points">
              <mxPoint x="300" y="520" />
              <mxPoint x="300" y="417" />
            </Array>
          </mxGeometry>
        </mxCell>
        <mxCell id="cLoqVfUioulm1d3ncOUN-17" value="no" style="edgeLabel;html=1;align=center;verticalAlign=middle;resizable=0;points=[];" vertex="1" connectable="0" parent="cLoqVfUioulm1d3ncOUN-14">
          <mxGeometry x="-0.2069" y="1" relative="1" as="geometry">
            <mxPoint as="offset" />
          </mxGeometry>
        </mxCell>
        <mxCell id="cLoqVfUioulm1d3ncOUN-19" style="edgeStyle=orthogonalEdgeStyle;rounded=0;orthogonalLoop=1;jettySize=auto;html=1;entryX=0.5;entryY=1;entryDx=0;entryDy=0;exitX=0.5;exitY=1;exitDx=0;exitDy=0;" edge="1" parent="1" source="cLoqVfUioulm1d3ncOUN-10" target="cLoqVfUioulm1d3ncOUN-13">
          <mxGeometry relative="1" as="geometry" />
        </mxCell>
        <mxCell id="cLoqVfUioulm1d3ncOUN-20" value="yes" style="edgeLabel;html=1;align=center;verticalAlign=middle;resizable=0;points=[];" vertex="1" connectable="0" parent="cLoqVfUioulm1d3ncOUN-19">
          <mxGeometry x="-0.0231" y="1" relative="1" as="geometry">
            <mxPoint as="offset" />
          </mxGeometry>
        </mxCell>
        <mxCell id="cLoqVfUioulm1d3ncOUN-10" value="if (arrey1[i].leght &amp;lt;=3)" style="rhombus;whiteSpace=wrap;html=1;" vertex="1" parent="1">
          <mxGeometry x="320" y="480" width="160" height="80" as="geometry" />
        </mxCell>
        <mxCell id="cLoqVfUioulm1d3ncOUN-16" style="edgeStyle=orthogonalEdgeStyle;rounded=0;orthogonalLoop=1;jettySize=auto;html=1;exitX=0.5;exitY=0;exitDx=0;exitDy=0;entryX=0;entryY=0.5;entryDx=0;entryDy=0;" edge="1" parent="1" source="cLoqVfUioulm1d3ncOUN-13" target="cLoqVfUioulm1d3ncOUN-8">
          <mxGeometry relative="1" as="geometry" />
        </mxCell>
        <mxCell id="cLoqVfUioulm1d3ncOUN-13" value="arrey2[count] = arrey1[i]&lt;br&gt;count++" style="rounded=0;whiteSpace=wrap;html=1;" vertex="1" parent="1">
          <mxGeometry x="130" y="490" width="120" height="60" as="geometry" />
        </mxCell>
        <mxCell id="cLoqVfUioulm1d3ncOUN-24" style="edgeStyle=orthogonalEdgeStyle;rounded=0;orthogonalLoop=1;jettySize=auto;html=1;exitX=0.5;exitY=1;exitDx=0;exitDy=0;entryX=0.5;entryY=0;entryDx=0;entryDy=0;" edge="1" parent="1" source="cLoqVfUioulm1d3ncOUN-21" target="cLoqVfUioulm1d3ncOUN-23">
          <mxGeometry relative="1" as="geometry" />
        </mxCell>
        <mxCell id="cLoqVfUioulm1d3ncOUN-21" value="print arrey2" style="rounded=0;whiteSpace=wrap;html=1;" vertex="1" parent="1">
          <mxGeometry x="500" y="370" width="120" height="60" as="geometry" />
        </mxCell>
        <mxCell id="cLoqVfUioulm1d3ncOUN-23" value="end" style="ellipse;whiteSpace=wrap;html=1;" vertex="1" parent="1">
          <mxGeometry x="500" y="480" width="120" height="80" as="geometry" />
        </mxCell>
      </root>
    </mxGraphModel>
  </diagram>
</mxfile>
